<?xml version="1.0" encoding="UTF-8" standalone="no"?>
<svg
   xmlns:dc="http://purl.org/dc/elements/1.1/"
   xmlns:cc="http://creativecommons.org/ns#"
   xmlns:rdf="http://www.w3.org/1999/02/22-rdf-syntax-ns#"
   xmlns:svg="http://www.w3.org/2000/svg"
   xmlns="http://www.w3.org/2000/svg"
   xmlns:sodipodi="http://sodipodi.sourceforge.net/DTD/sodipodi-0.dtd"
   xmlns:inkscape="http://www.inkscape.org/namespaces/inkscape"
   width="51mm"
   height="52mm"
   viewBox="0 0 51 52"
   version="1.1"
   id="svg8"
   inkscape:version="1.0.2 (e86c870879, 2021-01-15)"
   sodipodi:docname="logo_white.svg">
  <defs
     id="defs2" />
  <sodipodi:namedview
     id="base"
     pagecolor="#ffffff"
     bordercolor="#666666"
     borderopacity="1.0"
     inkscape:pageopacity="0.0"
     inkscape:pageshadow="2"
     inkscape:zoom="1.4"
     inkscape:cx="304.00051"
     inkscape:cy="177.53815"
     inkscape:document-units="mm"
     inkscape:current-layer="g868"
     inkscape:document-rotation="0"
     showgrid="false"
     inkscape:window-width="1920"
     inkscape:window-height="1009"
     inkscape:window-x="-8"
     inkscape:window-y="183"
     inkscape:window-maximized="1"
     inkscape:showpageshadow="2"
     inkscape:pagecheckerboard="0"
     inkscape:deskcolor="#d1d1d1" />
  <metadata
     id="metadata5">
    <rdf:RDF>
      <cc:Work
         rdf:about="">
        <dc:format>image/svg+xml</dc:format>
        <dc:type
           rdf:resource="http://purl.org/dc/dcmitype/StillImage" />
        <dc:title></dc:title>
      </cc:Work>
    </rdf:RDF>
  </metadata>
  <g
     inkscape:label="Capa 1"
     inkscape:groupmode="layer"
     id="layer1">
    <g
       id="g868"
       transform="matrix(0.26458333,0,0,0.26458333,59.335185,48.778039)">
      <path
         id="path847"
         style="fill:none;fill-opacity:1;stroke:#26b4f2;stroke-width:4.55157;stroke-miterlimit:4;stroke-dasharray:none;stroke-opacity:1"
         d="m -68.15501,-151.83172 c -0.35863,-0.0168 -0.71812,-0.0129 -1.07617,0.0117 -4.5271,0.31518 -7.907,3.80614 -7.54883,7.79688 0.0743,0.83158 0.31081,1.64561 0.69922,2.40625 -36.08695,8.9259 -100.77237,73.608894 -109.08984,107.574214 -0.58003,-0.1424 -1.17606,-0.228202 -1.77735,-0.25586 -0.35798,-0.01675 -0.71682,-0.01284 -1.07422,0.0117 -4.5271,0.315176 -8.22267,4.658452 -7.86451,8.649196 0.35769,3.990344 4.31716,6.969562 8.84376,6.6543 4.5271,-0.315177 8.22267,-4.658452 7.8645,-8.649196 -0.0132,-0.145636 -0.0315,-0.290886 -0.0547,-0.43555 38.80611,-7.86985 103.34379,-77.028304 110.07814,-109.294904 0.40586,0.0246 0.81323,0.0226 1.21875,-0.006 4.5271,-0.31518 7.90699,-3.80613 7.54883,-7.79687 -0.32549,-3.62517 -3.64798,-6.47648 -7.76758,-6.66602 z"
         sodipodi:nodetypes="cccccccccccccccc" />
      <path
         id="path847-2"
         style="fill:none;fill-opacity:1;stroke:#26b4f2;stroke-width:4.55157;stroke-miterlimit:4;stroke-dasharray:none;stroke-opacity:1"
         d="m -193.84056,-144.00167 c 0.35766,3.99038 4.31713,6.96958 8.84375,6.65429 0.0937,-0.006 0.18666,-0.0142 0.2793,-0.0234 7.88319,35.45628 73.32507,99.739074 108.45899,108.519534 -0.1694,0.690544 -0.22336,1.399213 -0.16016,2.10352 0.35769,3.990339 4.31715,6.969551 8.84375,6.65429 4.52616,-0.315198 7.9057,-3.804912 7.54883,-7.79492 -0.0655,-3.329303 -3.6508,-7.5953 -9.04464,-7.27929 -0.37375,0.02578 -0.74506,0.0071 -1.11133,0.07757 -7.65746,-33.07839 -69.32167,-98.893544 -107.43778,-107.890074 0.17625,-0.69162 0.23851,-1.41836 0.17187,-2.16211 -0.21889,-4.23 -5.1083,-8.25797 -9.45284,-7.59096 -4.50886,0.0582 -7.15031,5.12308 -6.93974,8.73155 z"
         sodipodi:nodetypes="cccccsccccccc" />
      <path
         id="path899-3"
         style="fill:none;stroke:#26b4f2;stroke-width:1.66879;stroke-linecap:butt;stroke-linejoin:miter;stroke-miterlimit:4;stroke-dasharray:none;stroke-opacity:1"
         d="m -181.58079,-140.64617 0.64565,0.77539 0.91294,1.16015 45.45313,45.556641 3.87305,3.880859 c 0.0373,-0.02843 0.0751,-0.05643 0.11328,-0.08398 z m 58.3418,58.673824 c -0.0315,0.02636 -0.0635,0.0524 -0.0957,0.0781 l 50.39844,50.537951 z"
         sodipodi:nodetypes="ccccccccccc" />
      <path
         id="circle835-5-9"
         style="display:inline;fill:none;fill-opacity:1;stroke:#26b4f2;stroke-width:5.58236;stroke-miterlimit:4;stroke-dasharray:none"
         d="m -60.47294,-144.88836 a 8.1299837,7.7702196 7.2568568 0 1 -7.79947,7.98986 8.1299837,7.7702196 7.2568568 0 1 -8.43676,-7.55626 8.1299837,7.7702196 7.2568568 0 1 7.79948,-7.98988 8.1299837,7.7702196 7.2568568 0 1 8.43675,7.55628 z" />
      <path
         id="circle835-5-9-8"
         style="display:inline;fill:none;stroke:#26b4f2;stroke-width:5.58236;stroke-miterlimit:4;stroke-dasharray:none"
         d="m -177.57449,-145.21214 a 8.1299837,7.7702196 7.2568568 0 1 -7.79947,7.98986 8.1299837,7.7702196 7.2568568 0 1 -8.43676,-7.55626 8.1299837,7.7702196 7.2568568 0 1 7.79948,-7.98988 8.1299837,7.7702196 7.2568568 0 1 8.43675,7.55628 z" />
      <path
         id="circle835-5-9-8-2"
         style="display:inline;fill:none;stroke:#26b4f2;stroke-width:5.58236;stroke-miterlimit:4;stroke-dasharray:none"
         d="m -59.99631,-27.621016 c 0.17597,4.29294 -3.31596,7.87012 -7.79947,7.98986 -4.48351,0.119738 -8.26077,-3.263315 -8.43676,-7.55626 -0.0846,-2.062765 0.67773,-3.960274 1.98997,-5.38837 0.005,-0.0053 0.01,-0.0105 0.0145,-0.01574 1.41827,-1.535029 3.47375,-2.523781 5.79501,-2.585772 4.48351,-0.119735 8.26078,3.263331 8.43675,7.55628 z"
         sodipodi:nodetypes="sssssss" />
      <path
         id="circle835-5-9-8-2-1"
         style="display:inline;fill:none;stroke:#26b4f2;stroke-width:1.56238;stroke-dasharray:none"
         d="m -121.65287,-85.678046 a 4.9642029,4.7445294 7.2568568 0 1 -4.76239,4.87865 4.9642029,4.7445294 7.2568568 0 1 -5.15152,-4.61389 4.9642029,4.7445294 7.2568568 0 1 4.76239,-4.878659 4.9642029,4.7445294 7.2568568 0 1 5.15152,4.613899 z" />
      <path
         id="circle835-5-9-8-2-5"
         style="display:inline;fill:none;stroke:#26b4f2;stroke-width:5.58236;stroke-miterlimit:4;stroke-dasharray:none"
         d="m -179.37621,-26.914906 c 0.17597,4.29294 -3.31596,7.87012 -7.79947,7.98986 -4.48351,0.11974 -8.26078,-3.26331 -8.43676,-7.55626 -0.17599,-4.29295 3.31596,-7.87015 7.79948,-7.98988 4.48351,-0.11973 8.26078,3.26333 8.43675,7.55628 z"
         sodipodi:nodetypes="sssss" />
      <path
         style="fill:none;fill-opacity:1;stroke:#26b4f2;stroke-width:1.67055;stroke-dasharray:none;stroke-opacity:1"
         d="m -182.11551,-31.493746 51.81421,-49.95516"
         id="path5"
         sodipodi:nodetypes="cc" />
      <path
         d="m -123.30151,-89.082281 51.07143,-50.714279"
         style="fill:none;fill-opacity:1;stroke:#26b4f2;stroke-width:1.67055;stroke-dasharray:none;stroke-opacity:1"
         id="path1" />
      <path
         id="circle835-5-9-8-2-9"
         style="display:inline;fill:none;fill-opacity:1;stroke:#ffffff;stroke-width:4.44674;stroke-opacity:1"
         d="m 11.16687,-117.64691 a 4.893467,4.6479919 6.3654756 0 1 -4.6949402,4.77895 4.893467,4.6479919 6.3654756 0 1 -5.07858,-4.51961 4.893467,4.6479919 6.3654756 0 1 4.69496,-4.77896 4.893467,4.6479919 6.3654756 0 1 5.0785602,4.51962 z" />
    </g>
  </g>
</svg>
