<?xml version="1.0" encoding="UTF-8" standalone="no"?>
<svg
   xmlns:dc="http://purl.org/dc/elements/1.1/"
   xmlns:cc="http://creativecommons.org/ns#"
   xmlns:rdf="http://www.w3.org/1999/02/22-rdf-syntax-ns#"
   xmlns:svg="http://www.w3.org/2000/svg"
   xmlns="http://www.w3.org/2000/svg"
   xmlns:sodipodi="http://sodipodi.sourceforge.net/DTD/sodipodi-0.dtd"
   xmlns:inkscape="http://www.inkscape.org/namespaces/inkscape"
   width="54mm"
   height="53mm"
   viewBox="0 0 54 53"
   version="1.1"
   id="svg8"
   inkscape:version="1.0.2 (e86c870879, 2021-01-15)"
   sodipodi:docname="NDXAI_white_blue.svg">
  <defs
     id="defs2" />
  <sodipodi:namedview
     id="base"
     pagecolor="#ffffff"
     bordercolor="#666666"
     borderopacity="1.0"
     inkscape:pageopacity="0.0"
     inkscape:pageshadow="2"
     inkscape:zoom="1.4"
     inkscape:cx="30.838707"
     inkscape:cy="83.111547"
     inkscape:document-units="mm"
     inkscape:current-layer="g868"
     inkscape:document-rotation="0"
     showgrid="false"
     inkscape:window-width="1920"
     inkscape:window-height="1009"
     inkscape:window-x="-8"
     inkscape:window-y="183"
     inkscape:window-maximized="1"
     inkscape:showpageshadow="2"
     inkscape:pagecheckerboard="0"
     inkscape:deskcolor="#d1d1d1" />
  <metadata
     id="metadata5">
    <rdf:RDF>
      <cc:Work
         rdf:about="">
        <dc:format>image/svg+xml</dc:format>
        <dc:type
           rdf:resource="http://purl.org/dc/dcmitype/StillImage" />
        <dc:title></dc:title>
      </cc:Work>
    </rdf:RDF>
  </metadata>
  <g
     inkscape:label="Capa 1"
     inkscape:groupmode="layer"
     id="layer1">
    <g
       id="g868"
       transform="matrix(0.26458333,0,0,0.26458333,59.335185,48.778039)">
      <path
         id="path847"
         style="fill:#ffffff;fill-opacity:1;stroke:#26b4f2;stroke-width:4.55157;stroke-miterlimit:4;stroke-dasharray:none;stroke-opacity:1"
         d="m -62.440727,-151.83173 a 8.2217493,7.2477422 1.1278296e-6 0 0 -1.07617,0.0117 8.2217493,7.2477422 1.1278296e-6 0 0 -7.54883,7.79688 8.2217493,7.2477422 1.1278296e-6 0 0 0.69922,2.40625 c -36.086953,8.9259 -100.772373,73.608904 -109.089843,107.574224 a 8.2217493,7.2477422 1.1278296e-6 0 0 -1.77735,-0.25586 8.2217493,7.2477422 1.1278296e-6 0 0 -1.07422,0.0117 8.2217493,7.2477422 1.1278296e-6 0 0 -7.54883,7.79688 8.2217493,7.2477422 1.1278296e-6 0 0 8.84375,6.6543 8.2217493,7.2477422 1.1278296e-6 0 0 7.54883,-7.79688 8.2217493,7.2477422 1.1278296e-6 0 0 -0.0547,-0.43555 c 38.80611,-7.86985 103.343793,-77.028314 110.078143,-109.294914 a 8.2217493,7.2477422 1.1278296e-6 0 0 1.21875,-0.006 8.2217493,7.2477422 1.1278296e-6 0 0 7.54883,-7.79687 8.2217493,7.2477422 1.1278296e-6 0 0 -7.76758,-6.66602 z" />
      <path
         id="path847-2"
         style="fill:none;fill-opacity:1;stroke:#26b4f2;stroke-width:4.55157;stroke-miterlimit:4;stroke-dasharray:none;stroke-opacity:1"
         d="m -179.73565,-151.81806 c -0.27772,-0.005 -0.5589,-1.7e-4 -0.8418,0.0195 -4.52663,0.3153 -7.90637,3.8065 -7.54883,7.79688 0.35766,3.99038 4.31713,6.96958 8.84375,6.65429 0.0937,-0.006 0.18666,-0.0142 0.2793,-0.0234 7.88319,35.45629 73.32507,99.739084 108.458993,108.519544 a 8.2217493,7.2477422 1.1278296e-6 0 0 -0.16016,2.10352 8.2217493,7.2477422 1.1278296e-6 0 0 8.84375,6.65429 8.2217493,7.2477422 1.1278296e-6 0 0 7.54883,-7.79492 8.2217493,7.2477422 1.1278296e-6 0 0 -8.84375,-6.65429 8.2217493,7.2477422 1.1278296e-6 0 0 -1.11133,0.14453 c -7.65746,-33.07839 -69.522563,-99.585514 -107.638673,-108.582044 0.17625,-0.69162 0.23851,-1.41836 0.17187,-2.16211 -0.33532,-3.74098 -3.83578,-6.59364 -8.00195,-6.67578 z" />
      <path
         id="path899-3"
         style="fill:none;stroke:#26b4f2;stroke-width:1.66879;stroke-linecap:butt;stroke-linejoin:miter;stroke-miterlimit:4;stroke-dasharray:none;stroke-opacity:1"
         d="m -175.86651,-140.64618 -0.11328,0.15039 1.67187,1.78515 45.45313,45.556651 3.87305,3.880859 a 5.5795845,4.918587 1.0152707e-6 0 1 0.11328,-0.08398 z m 58.3418,58.673834 a 5.5795845,4.918587 1.0152707e-6 0 1 -0.0957,0.0781 l 50.867193,50.98438 z" />
      <path
         id="circle835-5-9"
         style="display:inline;fill:#ffffff;stroke:#26b4f2;stroke-width:4.44674"
         d="m -54.758657,-144.88837 a 8.1299837,7.7702196 7.2568568 0 1 -7.79947,7.98986 8.1299837,7.7702196 7.2568568 0 1 -8.43676,-7.55626 8.1299837,7.7702196 7.2568568 0 1 7.79948,-7.98988 8.1299837,7.7702196 7.2568568 0 1 8.43675,7.55628 z" />
      <path
         id="circle835-5-9-8"
         style="display:inline;fill:#ffffff;stroke:#26b4f2;stroke-width:4.44674"
         d="m -171.86021,-145.21215 a 8.1299837,7.7702196 7.2568568 0 1 -7.79947,7.98986 8.1299837,7.7702196 7.2568568 0 1 -8.43676,-7.55626 8.1299837,7.7702196 7.2568568 0 1 7.79948,-7.98988 8.1299837,7.7702196 7.2568568 0 1 8.43675,7.55628 z" />
      <path
         id="circle835-5-9-8-2"
         style="display:inline;fill:#ffffff;stroke:#26b4f2;stroke-width:4.44674"
         d="m -54.282027,-27.621016 a 8.1299837,7.7702196 7.2568568 0 1 -7.79947,7.98986 8.1299837,7.7702196 7.2568568 0 1 -8.43676,-7.55626 8.1299837,7.7702196 7.2568568 0 1 7.79948,-7.98988 8.1299837,7.7702196 7.2568568 0 1 8.43675,7.55628 z" />
      <path
         id="circle835-5-9-8-2-1"
         style="display:inline;fill:#ffffff;stroke:#26b4f2;stroke-width:1.56238;stroke-dasharray:none"
         d="m -115.93859,-85.678046 a 4.9642029,4.7445294 7.2568568 0 1 -4.76239,4.87865 4.9642029,4.7445294 7.2568568 0 1 -5.15152,-4.61389 4.9642029,4.7445294 7.2568568 0 1 4.76239,-4.878659 4.9642029,4.7445294 7.2568568 0 1 5.15152,4.613899 z" />
      <path
         id="circle835-5-9-8-2-5"
         style="display:inline;fill:#ffffff;stroke:#26b4f2;stroke-width:4.44674"
         d="m -173.66193,-26.914906 c 0.17597,4.29294 -3.31596,7.87012 -7.79947,7.98986 -4.48351,0.11974 -8.26078,-3.26331 -8.43676,-7.55626 -0.17599,-4.29295 3.31596,-7.87015 7.79948,-7.98988 4.48351,-0.11973 8.26078,3.26333 8.43675,7.55628 z"
         sodipodi:nodetypes="sssss" />
      <path
         style="fill:none;fill-opacity:1;stroke:#26b4f2;stroke-width:1.67055;stroke-dasharray:none;stroke-opacity:1"
         d="m -176.40123,-31.493746 51.81421,-49.95516"
         id="path5"
         sodipodi:nodetypes="cc" />
      <path
         d="m -117.58723,-89.082281 51.071433,-50.714289"
         style="fill:none;fill-opacity:1;stroke:#26b4f2;stroke-width:1.67055;stroke-dasharray:none;stroke-opacity:1"
         id="path1" />
      <circle
         style="fill:#000000;fill-opacity:1;fill-rule:evenodd;stroke:#868769;stroke-width:0;stroke-opacity:1"
         id="path875"
         sodipodi:type="arc"
         sodipodi:cx="300.64493"
         sodipodi:cy="-113.85905"
         sodipodi:rx="1.1607143"
         sodipodi:ry="3.1696429"
         sodipodi:start="0"
         sodipodi:end="0.1738711"
         sodipodi:open="true"
         sodipodi:arc-type="arc"
         d="m 301.80564,-113.85905 a 1.1607143,3.1696429 0 0 1 -0.0175,0.54834" />
    </g>
  </g>
</svg>
