<?xml version="1.0" encoding="UTF-8" standalone="no"?>
<svg
   xmlns:dc="http://purl.org/dc/elements/1.1/"
   xmlns:cc="http://creativecommons.org/ns#"
   xmlns:rdf="http://www.w3.org/1999/02/22-rdf-syntax-ns#"
   xmlns:svg="http://www.w3.org/2000/svg"
   xmlns="http://www.w3.org/2000/svg"
   xmlns:sodipodi="http://sodipodi.sourceforge.net/DTD/sodipodi-0.dtd"
   xmlns:inkscape="http://www.inkscape.org/namespaces/inkscape"
   width="145mm"
   height="52mm"
   viewBox="0 0 145 52"
   version="1.1"
   id="svg8"
   inkscape:version="1.0.2 (e86c870879, 2021-01-15)"
   sodipodi:docname="NDXAI_white_blue_small.svg">
  <defs
     id="defs2" />
  <sodipodi:namedview
     id="base"
     pagecolor="#ffffff"
     bordercolor="#666666"
     borderopacity="1.0"
     inkscape:pageopacity="0.0"
     inkscape:pageshadow="2"
     inkscape:zoom="3.959798"
     inkscape:cx="380.33893"
     inkscape:cy="115.94602"
     inkscape:document-units="mm"
     inkscape:current-layer="g868"
     inkscape:document-rotation="0"
     showgrid="false"
     inkscape:window-width="1920"
     inkscape:window-height="1009"
     inkscape:window-x="-8"
     inkscape:window-y="183"
     inkscape:window-maximized="1"
     inkscape:showpageshadow="2"
     inkscape:pagecheckerboard="0"
     inkscape:deskcolor="#d1d1d1" />
  <metadata
     id="metadata5">
    <rdf:RDF>
      <cc:Work
         rdf:about="">
        <dc:format>image/svg+xml</dc:format>
        <dc:type
           rdf:resource="http://purl.org/dc/dcmitype/StillImage" />
        <dc:title />
      </cc:Work>
    </rdf:RDF>
  </metadata>
  <g
     inkscape:label="Capa 1"
     inkscape:groupmode="layer"
     id="layer1">
    <g
       id="g868"
       transform="matrix(0.26458333,0,0,0.26458333,59.335185,48.778039)">
      <path
         id="path847"
         style="fill:none;fill-opacity:1;stroke:#26b4f2;stroke-width:4.55157;stroke-miterlimit:4;stroke-dasharray:none;stroke-opacity:1"
         d="m 225.41642,-152.54601 c -0.35863,-0.0168 -0.71812,-0.0129 -1.07617,0.0117 -4.5271,0.31518 -7.907,3.80614 -7.54883,7.79688 0.0743,0.83158 0.31081,1.64561 0.69922,2.40625 -36.08695,8.9259 -100.77237,73.608898 -109.08984,107.574218 -0.58003,-0.1424 -1.17606,-0.228202 -1.77735,-0.25586 -0.35798,-0.01675 -0.71682,-0.01284 -1.07422,0.0117 -4.5271,0.315176 -8.222673,4.658452 -7.864505,8.649196 0.357686,3.990344 4.317155,6.969562 8.843755,6.6543 4.5271,-0.315177 8.22267,-4.658452 7.8645,-8.649196 -0.0132,-0.145636 -0.0315,-0.290886 -0.0547,-0.43555 38.80611,-7.86985 103.34379,-77.028308 110.07814,-109.294908 0.40586,0.0246 0.81323,0.0226 1.21875,-0.006 4.5271,-0.31518 7.90699,-3.80613 7.54883,-7.79687 -0.32549,-3.62517 -3.64798,-6.47648 -7.76758,-6.66602 z"
         sodipodi:nodetypes="cccccccccccccccc" />
      <path
         id="path847-2"
         style="fill:none;fill-opacity:1;stroke:#26b4f2;stroke-width:4.55157;stroke-miterlimit:4;stroke-dasharray:none;stroke-opacity:1"
         d="m 99.730868,-144.71596 c 0.357662,3.99038 4.317132,6.96958 8.843752,6.65429 0.0937,-0.006 0.18666,-0.0142 0.2793,-0.0234 7.88319,35.45628 73.32507,99.739078 108.45899,108.519538 -0.1694,0.690544 -0.22336,1.399213 -0.16016,2.10352 0.35769,3.990339 4.31715,6.969551 8.84375,6.65429 4.52616,-0.315198 7.9057,-3.804912 7.54883,-7.79492 -0.0655,-3.329303 -3.6508,-7.5953 -9.04464,-7.27929 -0.37375,0.02578 -0.74506,0.0071 -1.11133,0.07757 -7.65746,-33.07839 -69.32167,-98.893544 -107.43778,-107.890074 0.17625,-0.69162 0.23851,-1.41836 0.17187,-2.16211 -0.21889,-4.23 -5.1083,-8.25797 -9.45284,-7.59096 -4.50886,0.0582 -7.150308,5.12308 -6.939742,8.73155 z"
         sodipodi:nodetypes="cccccsccccccc" />
      <path
         id="path899-3"
         style="fill:none;stroke:#26b4f2;stroke-width:1.66879;stroke-linecap:butt;stroke-linejoin:miter;stroke-miterlimit:4;stroke-dasharray:none;stroke-opacity:1"
         d="m 111.99064,-141.36046 0.64565,0.77539 0.91294,1.16015 45.45313,45.556645 3.87305,3.880859 c 0.0373,-0.02843 0.0751,-0.05643 0.11328,-0.08398 z m 58.3418,58.673828 c -0.0315,0.02636 -0.0635,0.0524 -0.0957,0.0781 l 50.39844,50.537951 z"
         sodipodi:nodetypes="ccccccccccc" />
      <path
         d="M -75.475864,-18.859572 H -97.463099 L -176.23291,-127.31462 q -2.98855,-4.08011 -4.90977,-8.53977 h -0.6404 q 0.85387,4.36477 0.85387,18.6926 v 98.302218 h -17.93133 V -154.92653 h 23.26804 l 76.635122,106.747088 q 4.803037,6.64204 6.190581,9.10908 h 0.426937 q -1.067342,-5.88295 -1.067342,-20.02101 v -95.835158 h 17.931338 z m 40.132037,0 V -154.92653 H 6.9228978 q 80.9044902,0 80.9044902,66.325522 0,31.502246 -22.52091,50.669286 -22.41417,19.07215 -60.0913202,19.07215 z M -17.412489,-140.50381 V -33.282292 H 5.4286278 q 30.0990202,0 46.8562902,-14.32783 16.75726,-14.32784 16.75726,-40.611341 0,-52.282347 -62.5462202,-52.282347 z"
         id="text1223"
         style="font-size:217.523px;line-height:1.25;font-family:'Segoe UI';-inkscape-font-specification:'Segoe UI';fill:#ffffff;fill-opacity:1;stroke:none;stroke-width:0;stroke-opacity:1"
         aria-label="ND" />
      <path
         d="m 282.29979,-70.064622 h -7.00525 v -3.96305 c -0.62435,0.37744 -1.47347,0.91029 -2.54736,1.59854 -1.04892,0.66605 -2.07285,1.1989 -3.07181,1.59854 -1.17379,0.51064 -2.52239,0.93248 -4.04583,1.2655 -1.52341,0.35523 -3.30906,0.53285 -5.35694,0.53285 -3.77109,0 -6.96778,-1.11009 -9.59007,-3.33028 -2.62229,-2.2202 -3.93343,-5.05094 -3.93343,-8.49224 0,-2.81964 0.67431,-5.09534 2.02291,-6.82709 1.37358,-1.753953 3.32155,-3.130465 5.84395,-4.129557 2.54736,-0.999082 5.60668,-1.676243 9.178,-2.031474 3.57129,-0.355231 7.40482,-0.621653 11.50058,-0.799268 v -0.965785 c 0,-1.420922 -0.2872,-2.597623 -0.86161,-3.530104 -0.54943,-0.93248 -1.3486,-1.66514 -2.39752,-2.19799 -0.99896,-0.51064 -2.19773,-0.85477 -3.59627,-1.03239 -1.39855,-0.17761 -2.85954,-0.26642 -4.38296,-0.26642 -1.84809,0 -3.90845,0.22202 -6.1811,0.66606 -2.27264,0.42183 -4.62021,1.04349 -7.04271,1.86496 h -0.37461 v -6.36085 c 1.37358,-0.33303 3.35903,-0.69936 5.95634,-1.099 2.5973,-0.39963 5.15716,-0.59945 7.67953,-0.59945 2.94696,0 5.5068,0.22202 7.67955,0.66606 2.19773,0.42183 4.09577,1.1545 5.69411,2.19799 1.57336,1.02129 2.77213,2.3423 3.59628,3.96304 0.82414,1.62074 1.23622,3.630014 1.23622,6.027821 z m -7.00525,-9.1583 v -10.357196 c -2.14778,0.111011 -4.68265,0.277523 -7.60463,0.499546 -2.89699,0.222022 -5.19461,0.543952 -6.89285,0.965788 -2.02291,0.510642 -3.65871,1.309912 -4.90743,2.397802 -1.2487,1.0657 -1.87305,2.54213 -1.87305,4.42928 0,2.13139 0.72424,3.74102 2.17275,4.82892 1.4485,1.06569 3.65872,1.59854 6.63063,1.59854 2.47244,0 4.7326,-0.42184 6.78047,-1.26551 2.04789,-0.86588 3.94591,-1.89827 5.69411,-3.09717 z m 20.14789,-34.109128 0.0437,-0.15953 v 0.1264 l 0.046,0.0798 z m 7.53593,43.267428 h -7.0427 v -37.199318 h 7.0427 z"
         id="text1227"
         style="font-size:76.3455px;line-height:1.25;fill:#ffffff;fill-opacity:1;stroke:none;stroke-width:0.826695;stroke-opacity:1"
         aria-label="ai"
         sodipodi:nodetypes="ccccccsssccscsccssccccssccssccccccscscccccccccccc" />
      <path
         id="circle835-5-9"
         style="display:inline;fill:none;stroke:#26b4f2;stroke-width:5.58236227;fill-opacity:1;stroke-miterlimit:4;stroke-dasharray:none"
         d="m 233.09849,-145.60265 a 8.1299837,7.7702196 7.2568568 0 1 -7.79947,7.98986 8.1299837,7.7702196 7.2568568 0 1 -8.43676,-7.55626 8.1299837,7.7702196 7.2568568 0 1 7.79948,-7.98988 8.1299837,7.7702196 7.2568568 0 1 8.43675,7.55628 z" />
      <path
         id="circle835-5-9-8"
         style="display:inline;fill:none;stroke:#26b4f2;stroke-width:5.58236227;stroke-miterlimit:4;stroke-dasharray:none"
         d="m 115.99694,-145.92643 a 8.1299837,7.7702196 7.2568568 0 1 -7.79947,7.98986 8.1299837,7.7702196 7.2568568 0 1 -8.436762,-7.55626 8.1299837,7.7702196 7.2568568 0 1 7.799482,-7.98988 8.1299837,7.7702196 7.2568568 0 1 8.43675,7.55628 z" />
      <path
         id="circle835-5-9-8-2"
         style="display:inline;fill:none;stroke:#26b4f2;stroke-width:5.58236227;stroke-miterlimit:4;stroke-dasharray:none"
         d="m 233.57512,-28.335302 c 0.17597,4.29294 -3.31596,7.87012 -7.79947,7.98986 -4.48351,0.119738 -8.26077,-3.263315 -8.43676,-7.55626 -0.0846,-2.062765 0.67773,-3.960274 1.98997,-5.38837 0.005,-0.0053 0.01,-0.0105 0.0145,-0.01574 1.41827,-1.535029 3.47375,-2.523781 5.79501,-2.585772 4.48351,-0.119735 8.26078,3.263331 8.43675,7.55628 z"
         sodipodi:nodetypes="sssssss" />
      <path
         id="circle835-5-9-8-2-1"
         style="display:inline;fill:none;stroke:#26b4f2;stroke-width:1.56238;stroke-dasharray:none"
         d="m 171.91856,-86.392332 a 4.9642029,4.7445294 7.2568568 0 1 -4.76239,4.87865 4.9642029,4.7445294 7.2568568 0 1 -5.15152,-4.61389 4.9642029,4.7445294 7.2568568 0 1 4.76239,-4.878659 4.9642029,4.7445294 7.2568568 0 1 5.15152,4.613899 z" />
      <path
         id="circle835-5-9-8-2-5"
         style="display:inline;fill:none;stroke:#26b4f2;stroke-width:5.58236227;stroke-miterlimit:4;stroke-dasharray:none"
         d="m 114.19522,-27.629192 c 0.17597,4.29294 -3.31596,7.87012 -7.79947,7.98986 -4.48351,0.11974 -8.260782,-3.26331 -8.436762,-7.55626 -0.17599,-4.29295 3.315962,-7.87015 7.799482,-7.98988 4.48351,-0.11973 8.26078,3.26333 8.43675,7.55628 z"
         sodipodi:nodetypes="sssss" />
      <path
         style="fill:none;fill-opacity:1;stroke:#26b4f2;stroke-width:1.67055;stroke-dasharray:none;stroke-opacity:1"
         d="m 111.45592,-32.208032 51.81421,-49.95516"
         id="path5"
         sodipodi:nodetypes="cc" />
      <path
         d="m 170.26992,-89.796567 51.07143,-50.714283"
         style="fill:none;fill-opacity:1;stroke:#26b4f2;stroke-width:1.67055;stroke-dasharray:none;stroke-opacity:1"
         id="path1" />
      <circle
         style="fill:#ffffff;fill-opacity:1;fill-rule:evenodd;stroke:#868769;stroke-width:0;stroke-opacity:1"
         id="path875"
         sodipodi:type="arc"
         sodipodi:cx="300.64493"
         sodipodi:cy="-113.85905"
         sodipodi:rx="1.1607143"
         sodipodi:ry="3.1696429"
         sodipodi:start="0"
         sodipodi:end="0.1738711"
         sodipodi:open="true"
         sodipodi:arc-type="arc"
         d="m 301.80564,-113.85905 a 1.1607143,3.1696429 0 0 1 -0.0175,0.54834" />
      <path
         id="circle835-5-9-8-2-9"
         style="display:inline;fill:none;fill-opacity:1;stroke:#ffffff;stroke-width:4.44674;stroke-opacity:1"
         d="m 304.7383,-118.3612 a 4.893467,4.6479919 6.3654756 0 1 -4.69494,4.77895 4.893467,4.6479919 6.3654756 0 1 -5.07858,-4.51961 4.893467,4.6479919 6.3654756 0 1 4.69496,-4.77896 4.893467,4.6479919 6.3654756 0 1 5.07856,4.51962 z" />
    </g>
  </g>
</svg>
