<svg xmlns="http://www.w3.org/2000/svg" width="145mm" height="52mm" viewBox="0 0 145 52"><g transform="translate(59.335 48.778)scale(.26458)"><path d="M225.416-152.546a9 9 0 0 0-1.076.012c-4.527.315-7.907 3.806-7.549 7.797.075.831.311 1.645.7 2.406-36.087 8.926-100.773 73.609-109.09 107.574a9.2 9.2 0 0 0-2.852-.244c-4.527.315-8.222 4.658-7.864 8.65.357 3.99 4.317 6.969 8.843 6.653 4.528-.315 8.223-4.658 7.865-8.649a6 6 0 0 0-.055-.435c38.806-7.87 103.344-77.029 110.078-109.295q.61.036 1.22-.006c4.526-.315 7.906-3.806 7.548-7.797-.325-3.625-3.648-6.477-7.768-6.666z" style="fill:none;fill-opacity:1;stroke:#26b4f2;stroke-width:4.55157;stroke-miterlimit:4;stroke-dasharray:none;stroke-opacity:1"/><path d="M99.73-144.716c.359 3.99 4.318 6.97 8.845 6.654a8 8 0 0 0 .279-.023c7.883 35.456 73.325 99.739 108.459 108.52a6.4 6.4 0 0 0-.16 2.103c.357 3.99 4.317 6.97 8.844 6.654s7.905-3.805 7.548-7.795c-.065-3.329-3.65-7.595-9.044-7.279-.374.026-.745.007-1.112.078-7.657-33.079-69.321-98.894-107.437-107.89a6.4 6.4 0 0 0 .171-2.163c-.218-4.23-5.108-8.258-9.452-7.59-4.51.058-7.15 5.123-6.94 8.731z" style="fill:none;fill-opacity:1;stroke:#26b4f2;stroke-width:4.55157;stroke-miterlimit:4;stroke-dasharray:none;stroke-opacity:1"/><path d="m111.99-141.36.646.775.913 1.16 45.453 45.557 3.873 3.88.114-.083zm58.342 58.673-.095.078 50.398 50.538z" style="fill:none;stroke:#26b4f2;stroke-width:1.66879;stroke-linecap:butt;stroke-linejoin:miter;stroke-miterlimit:4;stroke-dasharray:none;stroke-opacity:1"/><path d="M-75.476-18.86h-21.987l-78.77-108.455q-2.988-4.08-4.91-8.54h-.64q.854 4.365.854 18.693v98.302h-17.932v-136.067h23.268l76.636 106.748q4.803 6.642 6.19 9.109h.427q-1.067-5.883-1.067-20.021v-95.836h17.931zm40.132 0v-136.067H6.923q80.904 0 80.904 66.326 0 31.502-22.52 50.67Q42.891-18.86 5.214-18.86zm17.932-121.644v107.222h22.84q30.1 0 46.857-14.328t16.757-40.611q0-52.283-62.546-52.283z" aria-label="ND" style="font-size:217.523px;line-height:1.25;font-family:&quot;Segoe UI&quot;;-inkscape-font-specification:&quot;Segoe UI&quot;;fill:#fff;fill-opacity:1;stroke:none;stroke-width:0;stroke-opacity:1"/><path d="M282.3-70.065h-7.005v-3.963q-.937.566-2.548 1.599a19 19 0 0 1-3.072 1.598q-1.76.767-4.045 1.266-2.286.533-5.357.533-5.657 0-9.59-3.33-3.934-3.33-3.934-8.493 0-4.23 2.023-6.827 2.061-2.63 5.844-4.13 3.821-1.498 9.178-2.03a207 207 0 0 1 11.5-.8v-.966q0-2.131-.861-3.53-.825-1.399-2.398-2.198-1.498-.766-3.596-1.032a35 35 0 0 0-4.383-.267q-2.772 0-6.18.666-3.41.633-7.044 1.865h-.374v-6.36q2.06-.5 5.956-1.1 3.895-.6 7.68-.6 4.42 0 7.68.667 3.296.632 5.693 2.198 2.36 1.531 3.597 3.963 1.236 2.43 1.236 6.028zm-7.005-9.158V-89.58a321 321 0 0 0-7.605.5q-4.346.332-6.893.965-3.035.766-4.907 2.398-1.874 1.599-1.873 4.43 0 3.195 2.172 4.828 2.173 1.599 6.631 1.599 3.709 0 6.78-1.266a32.2 32.2 0 0 0 5.695-3.097m20.147-34.109.044-.16v.127l.046.08zm7.536 43.267h-7.042v-37.199h7.042z" aria-label="ai" style="font-size:76.3455px;line-height:1.25;fill:#fff;fill-opacity:1;stroke:none;stroke-width:.826695;stroke-opacity:1"/><path d="M233.098-145.603a8.13 7.77 7.257 0 1-7.799 7.99 8.13 7.77 7.257 0 1-8.437-7.556 8.13 7.77 7.257 0 1 7.8-7.99 8.13 7.77 7.257 0 1 8.436 7.556z" style="display:inline;fill:none;stroke:#26b4f2;stroke-width:5.58236227;fill-opacity:1;stroke-miterlimit:4;stroke-dasharray:none"/><path d="M115.997-145.926a8.13 7.77 7.257 0 1-7.8 7.99 8.13 7.77 7.257 0 1-8.436-7.557 8.13 7.77 7.257 0 1 7.8-7.99 8.13 7.77 7.257 0 1 8.436 7.557zM233.575-28.335c.176 4.293-3.316 7.87-7.8 7.99-4.483.12-8.26-3.264-8.436-7.557a7.47 7.47 0 0 1 1.99-5.388l.014-.016c1.419-1.535 3.474-2.524 5.795-2.586 4.484-.12 8.261 3.264 8.437 7.557z" style="display:inline;fill:none;stroke:#26b4f2;stroke-width:5.58236227;stroke-miterlimit:4;stroke-dasharray:none"/><path d="M171.919-86.392a4.964 4.745 7.257 0 1-4.763 4.878 4.964 4.745 7.257 0 1-5.151-4.614 4.964 4.745 7.257 0 1 4.762-4.878 4.964 4.745 7.257 0 1 5.152 4.614z" style="display:inline;fill:none;stroke:#26b4f2;stroke-width:1.56238;stroke-dasharray:none"/><path d="M114.195-27.63c.176 4.294-3.316 7.87-7.8 7.99-4.483.12-8.26-3.263-8.436-7.556s3.316-7.87 7.8-7.99c4.483-.12 8.26 3.264 8.436 7.557z" style="display:inline;fill:none;stroke:#26b4f2;stroke-width:5.58236227;stroke-miterlimit:4;stroke-dasharray:none"/><path d="m111.456-32.208 51.814-49.955m7-7.634 51.071-50.714" style="fill:none;fill-opacity:1;stroke:#26b4f2;stroke-width:1.67055;stroke-dasharray:none;stroke-opacity:1"/><circle style="fill:#fff;fill-opacity:1;fill-rule:evenodd;stroke:#868769;stroke-width:0;stroke-opacity:1"/><path d="M304.738-118.361a4.893 4.648 6.365 0 1-4.695 4.779 4.893 4.648 6.365 0 1-5.078-4.52 4.893 4.648 6.365 0 1 4.695-4.779 4.893 4.648 6.365 0 1 5.078 4.52z" style="display:inline;fill:none;fill-opacity:1;stroke:#fff;stroke-width:4.44674;stroke-opacity:1"/></g></svg>