<?xml version="1.0" encoding="UTF-8" standalone="no"?>
<svg
   width="57mm"
   height="26mm"
   viewBox="0 0 57 26"
   version="1.1"
   id="svg8"
   inkscape:version="1.4.2 (f4327f4, 2025-05-13)"
   sodipodi:docname="logo_white.svg"
   xmlns:inkscape="http://www.inkscape.org/namespaces/inkscape"
   xmlns:sodipodi="http://sodipodi.sourceforge.net/DTD/sodipodi-0.dtd"
   xmlns:xlink="http://www.w3.org/1999/xlink"
   xmlns="http://www.w3.org/2000/svg"
   xmlns:svg="http://www.w3.org/2000/svg"
   xmlns:rdf="http://www.w3.org/1999/02/22-rdf-syntax-ns#"
   xmlns:cc="http://creativecommons.org/ns#"
   xmlns:dc="http://purl.org/dc/elements/1.1/">
  <defs
     id="defs2">
    <linearGradient
       id="linearGradient1099"
       inkscape:swatch="solid">
      <stop
         style="stop-color:#FFFFFF;stop-opacity:1;"
         offset="0"
         id="stop1097" />
    </linearGradient>
    <linearGradient
       inkscape:collect="always"
       id="955A8E6CF-5-7-1">
      <stop
         style="stop-color:#FFFFFF;stop-opacity:1;"
         offset="0"
         id="stop951" />
      <stop
         style="stop-color:#FFFFFF;stop-opacity:0;"
         offset="1"
         id="stop953" />
    </linearGradient>
    <linearGradient
       inkscape:collect="always"
       id="A8E6CF">
      <stop
         style="stop-color:#FFFFFF;stop-opacity:1;"
         offset="0"
         id="stop943" />
      <stop
         style="stop-color:#FFFFFF;stop-opacity:0;"
         offset="1"
         id="stop945" />
    </linearGradient>
    <rect
       x="26.192413"
       y="41.426777"
       width="37.150463"
       height="22.98518"
       id="rect847" />
    <rect
       x="28.597839"
       y="39.28862"
       width="28.063299"
       height="23.519718"
       id="rect841" />
    <style
       id="style1081">
      .line { stroke:#FFFFFF; stroke-width:6; stroke-linecap:round; }
      .end { fill:#66d0ff; stroke:#FFFFFF; stroke-width:3; }
      .smallend { fill:#66d0ff; stroke:#FFFFFF; stroke-width:2.5; }
    </style>
    <linearGradient
       inkscape:collect="always"
       xlink:href="#A8E6CF"
       id="linearGradient949"
       x1="74.468872"
       y1="67.982391"
       x2="84.297585"
       y2="67.982391"
       gradientUnits="userSpaceOnUse"
       gradientTransform="translate(-0.43934112,-1.1381384)" />
    <linearGradient
       inkscape:collect="always"
       xlink:href="#955A8E6CF-5-7-1"
       id="linearGradient957"
       x1="74.197495"
       y1="66.874252"
       x2="82.994453"
       y2="66.874252"
       gradientUnits="userSpaceOnUse"
       gradientTransform="matrix(1.064598,0,0,0.9393217,-34.768978,-55.180466)" />
    <linearGradient
       id="gradient"
       x1="0"
       y1="0"
       x2="1"
       y2="1"
       gradientUnits="objectBoundingBox"
       spreadMethod="pad">
      <stop
         offset="0%"
         style="stop-color:rgb(167,222,207);stop-opacity:1"
         id="stop3102" />
      <stop
         offset="50%"
         style="stop-color:rgb(187,178,216);stop-opacity:1"
         id="stop3104" />
      <stop
         offset="100%"
         style="stop-color:rgb(240,170,160);stop-opacity:1"
         id="stop3106" />
    </linearGradient>
  </defs>
  <sodipodi:namedview
     id="base"
     pagecolor="#ffffff"
     bordercolor="#666666"
     borderopacity="1.0"
     inkscape:pageopacity="0.0"
     inkscape:pageshadow="2"
     inkscape:zoom="2.8"
     inkscape:cx="183.75"
     inkscape:cy="84.107143"
     inkscape:document-units="mm"
     inkscape:current-layer="layer1"
     inkscape:document-rotation="0"
     showgrid="false"
     inkscape:lockguides="false"
     inkscape:window-width="1920"
     inkscape:window-height="1017"
     inkscape:window-x="-8"
     inkscape:window-y="-8"
     inkscape:window-maximized="1"
     showguides="false"
     inkscape:showpageshadow="2"
     inkscape:pagecheckerboard="0"
     inkscape:deskcolor="#d1d1d1" />
  <metadata
     id="metadata5">
    <rdf:RDF>
      <cc:Work
         rdf:about="">
        <dc:format>image/svg+xml</dc:format>
        <dc:type
           rdf:resource="http://purl.org/dc/dcmitype/StillImage" />
      </cc:Work>
    </rdf:RDF>
  </metadata>
  <g
     inkscape:label="Capa 1"
     inkscape:groupmode="layer"
     id="layer1">
    <text
       xml:space="preserve"
       id="text839"
       style="font-style:normal;font-weight:normal;font-size:10.5833px;line-height:1.25;font-family:sans-serif;white-space:pre;shape-inside:url(#rect841);fill:#ffffff;fill-opacity:1;stroke:none" />
    <text
       xml:space="preserve"
       id="text845"
       style="font-style:normal;font-weight:normal;font-size:10.5833px;line-height:1.25;font-family:sans-serif;white-space:pre;shape-inside:url(#rect847);fill:#ffffff;fill-opacity:1;stroke:none" />
    <path
       style="font-size:17.228px;line-height:1.25;font-family:'Segoe UI';-inkscape-font-specification:'Segoe UI';fill:#ffffff;stroke:#ffffff;stroke-width:0"
       d="M 12.425655,14.31115 H 10.633502 L 4.2130766,5.0140315 Q 3.9694832,4.664271 3.8128873,4.2819747 h -0.052199 q 0.069598,0.3741623 0.069598,1.6023908 V 14.31115 H 2.3687259 V 2.6470481 h 1.8965494 l 6.2464307,9.1507069 q 0.39149,0.569377 0.504586,0.78086 h 0.0348 q -0.087,-0.504306 -0.087,-1.716266 V 2.6470481 h 1.461561 z"
       id="text835"
       aria-label="N" />
    <path
       style="font-size:6.74805px;line-height:1.25;font-family:'Segoe UI';-inkscape-font-specification:'Segoe UI';fill:#ffffff;stroke:#ffffff;stroke-width:0.1"
       d="M 4.7530979,24.032633 H 3.9911106 L 1.2612729,20.677865 Q 1.1577019,20.551658 1.0911204,20.413711 h -0.022194 q 0.029592,0.135013 0.029592,0.578205 v 3.040717 H 0.47709203 V 19.823765 H 1.2834668 l 2.6558585,3.301936 q 0.1664534,0.205454 0.21454,0.281765 h 0.014796 q -0.03699,-0.181972 -0.03699,-0.619296 V 19.823765 H 4.7530978 Z M 9.1067806,22.650222 H 6.4324281 q 0.0148,0.501895 0.340305,0.774855 0.3255097,0.27296 0.8951504,0.27296 0.6399197,0 1.1762704,-0.334596 v 0.451998 q -0.4993597,0.287636 -1.3205304,0.287636 -0.8026754,0 -1.2613471,-0.407973 -0.458672,-0.410907 -0.458672,-1.153477 0,-0.701478 0.4993607,-1.141736 0.503059,-0.443193 1.2465504,-0.443193 0.7434927,0 1.1503794,0.381557 0.4068857,0.381557 0.4068857,1.059555 z M 8.4853539,22.24225 q -0.0037,-0.416778 -0.2552287,-0.648648 -0.24783,-0.231868 -0.6917067,-0.231868 -0.4290787,0 -0.7286954,0.243609 -0.299616,0.24361 -0.369897,0.636907 z m 4.6015141,1.790383 h -0.60663 v -0.475478 h -0.0148 q -0.377295,0.54592 -1.168874,0.54592 -1.3538227,0 -1.3538227,-1.279684 v -1.796254 h 0.6029327 v 1.719942 q 0,0.950958 0.917343,0.950958 0.443877,0 0.728697,-0.258285 0.28852,-0.261219 0.28852,-0.680933 v -1.731682 h 0.60663 z m 3.199606,-2.518277 q -0.159055,-0.09686 -0.458671,-0.09686 -0.388392,0 -0.651019,0.290569 -0.258928,0.290571 -0.258928,0.792466 v 1.532098 h -0.60663 v -3.005496 h 0.60663 v 0.619296 h 0.0148 q 0.129464,-0.316986 0.39579,-0.493089 0.266325,-0.179038 0.595534,-0.179038 0.236733,0 0.362498,0.04109 z m 3.36976,2.518277 h -0.60663 v -0.469609 h -0.0148 q -0.39579,0.540051 -1.165175,0.540051 -0.565942,0 -0.887752,-0.23774 -0.318111,-0.23774 -0.318111,-0.631037 0,-0.84236 1.250251,-0.980308 L 19.0496,22.127783 q 0,-0.766049 -0.780483,-0.766049 -0.684309,0 -1.235455,0.369816 v -0.493089 q 0.558544,-0.281765 1.287242,-0.281765 1.335326,0 1.335326,1.121191 z m -0.60663,-1.520358 -0.913646,0.09979 q -0.421682,0.04696 -0.636221,0.167298 -0.21454,0.117402 -0.21454,0.419713 0,0.220129 0.196045,0.361012 0.199744,0.137947 0.528952,0.137947 0.451274,0 0.743492,-0.249479 0.295918,-0.252415 0.295918,-0.636908 z m 2.356242,1.520358 H 20.799215 V 19.58309 h 0.606631 z m 3.384554,0 v -4.208868 h 1.464791 q 2.803817,0 2.803817,2.051603 0,0.974439 -0.780482,1.56732 -0.776783,0.589945 -2.082518,0.589945 z m 0.621426,-3.76274 v 3.316612 h 0.79158 q 1.043109,0 1.623846,-0.443193 0.580738,-0.443194 0.580738,-1.256204 0,-1.617215 -2.167595,-1.617215 z m 7.623571,0.757244 -1.742213,3.486845 q -0.466071,0.933348 -1.309434,0.933348 -0.236735,0 -0.39579,-0.03815 v -0.431455 q 0.196046,0.05283 0.3588,0.05283 0.458672,0 0.688007,-0.434388 l 0.303316,-0.569401 -1.479587,-2.999626 h 0.673213 l 1.024613,2.312823 q 0.01849,0.04402 0.07767,0.228934 h 0.0222 q 0.01849,-0.07044 0.07398,-0.223064 l 1.0764,-2.318693 z m 3.795142,3.005496 h -0.606631 v -1.714072 q 0,-0.956827 -0.880354,-0.956827 -0.454973,0 -0.754589,0.27296 -0.295918,0.270025 -0.295918,0.683867 v 1.714072 h -0.60663 v -3.005496 h 0.60663 v 0.49896 h 0.0148 q 0.429081,-0.569401 1.242853,-0.569401 0.621427,0 0.950634,0.319921 0.329209,0.316985 0.329209,0.918672 z m 3.854325,0 h -0.60663 v -0.469609 h -0.0148 q -0.39579,0.540051 -1.165175,0.540051 -0.565942,0 -0.887752,-0.23774 -0.318112,-0.23774 -0.318112,-0.631037 0,-0.84236 1.250251,-0.980308 l 1.135584,-0.126207 q 0,-0.766049 -0.780483,-0.766049 -0.684309,0 -1.235455,0.369816 v -0.493089 q 0.558544,-0.281765 1.287241,-0.281765 1.335327,0 1.335327,1.121191 z m -0.60663,-1.520358 -0.913645,0.09979 q -0.421683,0.04696 -0.636223,0.167298 -0.21454,0.117402 -0.21454,0.419713 0,0.220129 0.196045,0.361012 0.199744,0.137947 0.528953,0.137947 0.451273,0 0.743492,-0.249479 0.295918,-0.252415 0.295918,-0.636908 z m 7.127909,1.520358 h -0.606631 v -1.725812 q 0,-0.498959 -0.196045,-0.722023 -0.192346,-0.223064 -0.651018,-0.223064 -0.388392,0 -0.662115,0.281765 -0.270025,0.281765 -0.270025,0.675062 v 1.714072 h -0.60663 V 22.24812 q 0,-0.886386 -0.86186,-0.886386 -0.399488,0 -0.658416,0.26709 -0.258927,0.264154 -0.258927,0.689737 v 1.714072 h -0.606632 v -3.005496 h 0.606632 v 0.475479 h 0.0148 q 0.403188,-0.54592 1.176272,-0.54592 0.388392,0 0.676911,0.173168 0.288519,0.170233 0.39579,0.449064 0.421682,-0.622232 1.257649,-0.622232 1.25025,0 1.25025,1.223918 z m 1.457389,-3.76861 q -0.162753,0 -0.277421,-0.08805 -0.114669,-0.08805 -0.114669,-0.223064 0,-0.135012 0.114669,-0.223065 0.114668,-0.09099 0.277421,-0.09099 0.166454,0 0.281122,0.09099 0.118368,0.08805 0.118368,0.223065 0,0.129142 -0.118368,0.220129 -0.114668,0.09099 -0.281122,0.09099 z m 0.295918,3.76861 h -0.60663 v -3.005496 h 0.60663 z m 3.809935,-0.137948 q -0.436478,0.20839 -1.035711,0.20839 -0.810073,0 -1.309434,-0.416778 -0.495662,-0.419713 -0.495662,-1.085971 0,-0.742568 0.536351,-1.191632 0.53635,-0.451998 1.4315,-0.451998 0.499361,0 0.880354,0.146752 v 0.493089 q -0.421682,-0.234803 -0.902548,-0.234803 -0.580737,0 -0.954333,0.331661 -0.369897,0.328726 -0.369897,0.865841 0,0.52831 0.347703,0.833556 0.351402,0.305245 0.939538,0.305245 0.495661,0 0.932139,-0.26122 z m 0.688009,0.02935 v -0.51657 q 0.495661,0.290571 1.091195,0.290571 0.798977,0 0.798977,-0.422648 0,-0.120337 -0.07028,-0.202519 -0.06658,-0.08511 -0.184948,-0.149688 -0.114668,-0.06457 -0.273724,-0.114467 -0.155357,-0.05283 -0.336606,-0.108597 -0.25153,-0.07924 -0.443876,-0.158493 -0.188647,-0.08218 -0.318111,-0.181973 -0.125764,-0.102727 -0.192346,-0.231869 -0.06288,-0.129143 -0.06288,-0.302311 0,-0.211324 0.122067,-0.372752 0.122066,-0.164363 0.325509,-0.27296 0.203443,-0.111532 0.46237,-0.167298 0.262627,-0.05576 0.540049,-0.05576 0.491963,0 0.880355,0.135013 v 0.487219 q -0.417983,-0.217194 -0.961731,-0.217194 -0.170153,0 -0.307015,0.03228 -0.136861,0.02935 -0.236733,0.08511 -0.09617,0.05576 -0.151658,0.135012 -0.05179,0.07631 -0.05179,0.170234 0,0.117402 0.05179,0.196648 0.05548,0.07924 0.159055,0.140883 0.103573,0.06163 0.25153,0.111532 0.147959,0.04989 0.336606,0.108597 0.25153,0.07631 0.451274,0.158493 0.199744,0.07924 0.340305,0.181974 0.14056,0.09979 0.21454,0.231869 0.07767,0.132077 0.07767,0.314051 0,0.223064 -0.125765,0.387427 -0.122065,0.164363 -0.329208,0.272961 -0.207142,0.108597 -0.477166,0.161427 -0.270025,0.05283 -0.565942,0.05283 -0.584438,0 -1.013517,-0.179038 z"
       id="text853"
       aria-label="Neural Dynamics" />
    <path
       d="m 44.999051,6.3259072 q 1.053703,-0.5803642 2.433096,-0.5803642 2.554432,0 2.554432,2.3665322 V 12.123908 H 48.74768 v -0.963515 h -0.03193 q -0.7344,1.110016 -2.164881,1.110016 -1.028159,0 -1.634838,-0.490211 -0.606677,-0.49021 -0.606677,-1.32413 0,-1.7467251 2.343691,-2.0340901 L 48.74768,8.1627862 q 0,-1.5269761 -1.430482,-1.5269761 -1.270831,0 -2.318147,0.7550364 z m 2.094634,2.8680104 q -0.868507,0.101422 -1.200584,0.3831527 -0.325689,0.28173 -0.325689,0.7888427 0,0.445134 0.35762,0.726864 0.35762,0.28173 0.94514,0.28173 0.817419,0 1.347463,-0.507114 0.530045,-0.507114 0.530045,-1.2734197 V 8.9967056 Z m 4.815105,-5.499369 q 0,-0.2929992 0.223512,-0.4902103 0.229899,-0.2028455 0.561976,-0.2028455 0.338461,0 0.56836,0.197211 0.236286,0.197211 0.236286,0.4958448 0,0.2929992 -0.236286,0.4902102 -0.229899,0.1915764 -0.56836,0.1915764 -0.338462,0 -0.561976,-0.1915764 Q 51.90879,3.9875478 51.90879,3.6945486 Z m 0.146879,8.4293594 V 5.8920426 h 1.251673 v 6.2318654 z"
       id="text1163"
       style="font-size:12.2851px;line-height:1.35;font-family:'Microsoft YaHei';-inkscape-font-specification:'Microsoft YaHei';fill:#ffffff;stroke:url(#linearGradient957);stroke-width:0"
       aria-label="ai" />
    <g
       id="g1155"
       transform="matrix(0.09346333,0,0,0.09346333,26.633808,-5.4761198)"
       style="stroke:#ffffff;stroke-width:6.38753;stroke-miterlimit:4;stroke-dasharray:none;stroke-opacity:1">
      <g
         transform="rotate(45,100,150)"
         id="g1089"
         style="stroke:#ffffff;stroke-width:6.38753;stroke-miterlimit:4;stroke-dasharray:none;stroke-opacity:1">
        <path
           id="line1085"
           style="stroke-width:12.8072;stroke-linecap:round"
           class="line"
           d="M 100,150 V 50" />
        <path
           id="circle1087"
           style="fill:#66d0ff;stroke-width:5.31759"
           class="end"
           transform="matrix(1,1.0345568e-5,1.0345568e-5,1,0,0)"
           d="M 114.40271,49.998966 A 14.403234,14.403234 0 0 1 99.999481,64.4022 14.403234,14.403234 0 0 1 85.596248,49.998966 14.403234,14.403234 0 0 1 99.999481,35.595733 14.403234,14.403234 0 0 1 114.40271,49.998966 Z" />
        <path
           id="circle1087-7"
           style="fill:#b600fd;stroke-width:5.31759"
           class="end"
           transform="matrix(1,1.1682451e-5,1.1682451e-5,1,0,0)"
           d="m 199.97852,-11.467956 a 8.5898027,8.5898027 0 0 1 -8.5898,8.5898032 8.5898027,8.5898027 0 0 1 -8.58981,-8.5898032 8.5898027,8.5898027 0 0 1 8.58981,-8.589802 8.5898027,8.5898027 0 0 1 8.5898,8.589802 z" />
      </g>
      <g
         transform="rotate(135,100.0802,149.80638)"
         id="g1095"
         style="stroke:#ffffff;stroke-width:6.38753;stroke-miterlimit:4;stroke-dasharray:none;stroke-opacity:1">
        <path
           id="line1091"
           style="stroke-width:12.8072;stroke-linecap:round"
           class="line"
           d="M 100,150 V 50" />
        <path
           id="circle1093"
           style="fill:#66d0ff;stroke-width:5.3176"
           class="end"
           inkscape:transform-center-x="-0.047247024"
           inkscape:transform-center-y="-0.094494048"
           transform="matrix(1,4.4808285e-5,4.4808285e-5,1,0,0)"
           d="M 114.40021,49.995518 A 14.402455,14.402455 0 0 1 99.997757,64.397973 14.402455,14.402455 0 0 1 85.595302,49.995518 14.402455,14.402455 0 0 1 99.997757,35.593062 14.402455,14.402455 0 0 1 114.40021,49.995518 Z" />
      </g>
      <g
         transform="matrix(-0.70710678,-0.70708251,0.70710678,-0.70708251,64.644661,326.77063)"
         id="g1101"
         style="stroke:#ffffff;stroke-width:6.38764;stroke-miterlimit:4;stroke-dasharray:none;stroke-opacity:1">
        <path
           id="line1097"
           style="stroke-width:12.8074;stroke-linecap:round"
           class="line"
           d="M 100,150 V 50" />
        <path
           id="circle1099"
           style="fill:#66d0ff;stroke-width:5.31772"
           class="end"
           transform="matrix(0.99999619,-0.00275894,-0.00275894,0.99999619,0,0)"
           d="M 113.96153,50.27647 A 13.822438,13.822438 0 0 1 100.13909,64.098908 13.822438,13.822438 0 0 1 86.316653,50.27647 13.822438,13.822438 0 0 1 100.13909,36.454032 13.822438,13.822438 0 0 1 113.96153,50.27647 Z" />
      </g>
      <g
         transform="rotate(-45,100,150)"
         id="g1107"
         style="stroke:#ffffff;stroke-width:6.38753;stroke-miterlimit:4;stroke-dasharray:none;stroke-opacity:1">
        <path
           id="line1103"
           style="stroke-width:12.8072;stroke-linecap:round"
           class="line"
           d="M 100,150 V 50" />
        <path
           id="circle1105"
           style="fill:#66d0ff;stroke-width:5.3176;stroke-miterlimit:4.1"
           class="end"
           transform="matrix(1,-1.3151822e-5,-1.3151822e-5,1,0,0)"
           d="M 114.40304,50.001316 A 14.402378,14.402378 0 0 1 100.00066,64.403694 14.402378,14.402378 0 0 1 85.598286,50.001316 14.402378,14.402378 0 0 1 100.00066,35.598938 14.402378,14.402378 0 0 1 114.40304,50.001316 Z" />
      </g>
      <path
         id="line1109"
         style="stroke-width:4.24766;stroke-linecap:round"
         class="line"
         d="M 100,150.15427 V 93.565681" />
      <path
         id="circle1111"
         style="fill:#66d0ff;stroke-width:3.17772"
         class="smallend"
         d="m 104.79829,97.085968 a 5,5 0 0 1 -4.999996,5.000002 5,5 0 0 1 -5,-5.000002 5,5 0 0 1 5,-5 5,5 0 0 1 4.999996,5 z" />
      <path
         id="line1113"
         style="stroke-width:4.24766;stroke-linecap:round"
         class="line"
         d="m 100,150 h 45" />
      <path
         id="circle1115"
         style="fill:#66d0ff;stroke-width:3.17772"
         class="smallend"
         d="m 150,150 a 5,5 0 0 1 -5,5 5,5 0 0 1 -5,-5 5,5 0 0 1 5,-5 5,5 0 0 1 5,5 z" />
      <path
         id="line1117"
         style="stroke-width:4.24766;stroke-linecap:round"
         class="line"
         d="m 100,149.61276 v 51.43666" />
      <path
         id="circle1119"
         style="fill:#66d0ff;stroke-width:3.17772"
         class="smallend"
         d="m 105,202.40828 a 5,5 0 0 1 -5,5 5,5 0 0 1 -5,-5 5,5 0 0 1 5,-5 5,5 0 0 1 5,5 z" />
      <path
         id="line1121"
         style="stroke-width:4.24766;stroke-linecap:round"
         class="line"
         d="M 100,150 H 55" />
      <path
         id="circle1123"
         style="fill:#66d0ff;stroke-width:3.17772"
         class="smallend"
         d="m 60,150 a 5,5 0 0 1 -5,5 5,5 0 0 1 -5,-5 5,5 0 0 1 5,-5 5,5 0 0 1 5,5 z" />
      <path
         id="circle1125"
         style="fill:#66d0ff;stroke-width:6.38755"
         d="M 113.61696,150 A 13.616937,13.616937 0 0 1 100.00002,163.61694 13.616937,13.616937 0 0 1 86.383086,150 13.616937,13.616937 0 0 1 100.00002,136.38306 13.616937,13.616937 0 0 1 113.61696,150 Z" />
    </g>
    <path
       style="font-size:17.228px;line-height:1.25;font-family:'Segoe UI';-inkscape-font-specification:'Segoe UI';fill:#ffffff;stroke:#ffffff;stroke-width:0"
       d="M 16.918458,14.403548 V 2.7394467 h 3.445109 q 6.594424,0 6.594424,5.6856392 0,2.7004761 -1.835651,4.3435361 -1.826951,1.634926 -4.897969,1.634926 z M 18.38002,3.9758091 v 9.1913769 h 1.86175 q 2.453334,0 3.819198,-1.228228 1.365863,-1.228229 1.365863,-3.4813351 0,-4.4818138 -5.098064,-4.4818138 z"
       id="text835-1"
       aria-label="D" />
  </g>
</svg>
